<svg width="514" height="254" viewBox="0 0 514 254" fill="none" xmlns="http://www.w3.org/2000/svg">
<path d="M84.5814 253.307H134.56C124.197 242.957 124.436 226.884 124.368 210.853C124.995 192.731 131.042 171.968 133.745 150.64L127.344 150.062C126.161 160.484 123.191 170.296 119.594 178.597C114.162 165.418 110.13 158.233 109.714 143.006H105.196C103.091 155.271 104.414 168.13 109.714 181.671C101.478 170.159 92.8006 161.72 83.6035 156.907L78.9417 161.611C90.2182 169.782 100.995 185.892 100.014 204.373C100.011 226.516 97.0999 240.487 84.5814 253.307Z" fill="#B46733"/>
<path d="M215.693 76.6812C215.693 68.032 209.806 60.7766 201.823 58.6551C201.831 58.4387 201.857 58.2252 201.857 58.0088C201.857 47.6961 193.497 39.3335 183.181 39.3335C181.481 39.3335 179.84 39.5808 178.275 40.0079C177.573 30.3359 169.522 22.6983 159.67 22.6983C157.032 22.6983 154.525 23.2519 152.249 24.2382C151.072 15.0579 143.246 7.95425 133.745 7.95425C129.319 7.95425 125.259 9.50256 122.058 12.0737C119.018 5.21731 112.201 0.406586 104.215 0.406586C96.1698 0.406586 89.26 5.26508 86.2533 12.2058C85.7222 12.1636 85.1883 12.1355 84.6488 12.1355C78.2223 12.1355 72.5208 15.2321 68.955 20.0148C65.6588 17.4858 61.5366 15.9796 57.0602 15.9796C46.253 15.9796 37.4942 24.7412 37.4942 35.5456C26.6869 35.5456 17.9282 44.3072 17.9282 55.1117C17.9282 57.4974 18.3553 59.7819 19.1393 61.895C8.6917 63.2326 0.615763 72.1515 0.615763 82.9616C0.615763 89.3796 3.4651 95.1289 7.96391 99.0235C5.59508 102.449 4.20694 106.605 4.20694 111.084C4.20694 113.501 4.6172 115.822 5.36185 117.988C2.04605 121.737 0.0284729 126.66 0.0284729 132.058C0.0284729 143.792 9.54032 153.304 21.2749 153.304C26.0294 153.304 30.4186 151.742 33.9592 149.103C36.2803 158.32 44.6232 165.143 54.5593 165.143C60.0866 165.143 65.1193 163.03 68.8988 159.571C72.3579 165.095 78.4949 168.771 85.4918 168.771C96.2991 168.771 105.058 160.009 105.058 149.205C105.058 149.033 105.049 148.865 105.044 148.693C107.792 150.115 110.908 150.921 114.216 150.921C118.653 150.921 122.752 149.474 126.071 147.03C128.867 156.533 137.651 163.471 148.059 163.471C154.351 163.471 160.047 160.936 164.191 156.831C167.044 158.104 170.199 158.818 173.524 158.818C186.185 158.818 196.447 148.555 196.447 135.894C196.447 132.359 195.647 129.012 194.219 126.025C203.43 123.052 210.093 114.411 210.093 104.211C210.093 99.9396 208.904 95.955 206.867 92.5296C212.155 89.2335 215.693 83.3775 215.693 76.6812Z" fill="#569441"/>
<g filter="url(#filter0_d_1_7)">
<path d="M238.676 138.988C238.676 137.634 238.656 136.156 238.617 134.555C238.578 132.94 238.552 131.879 238.539 131.371C238.435 127.986 238.383 125.44 238.383 123.734C238.383 121.221 238.448 119.073 238.578 117.289L235.98 116.879C235.811 116.176 235.694 115.583 235.629 115.102C235.551 114.62 235.512 114.092 235.512 113.52V113.07C235.785 112.732 236.221 112.38 236.82 112.016C237.432 111.651 238.142 111.345 238.949 111.098C239.77 110.85 240.596 110.727 241.43 110.727C242.966 110.727 244.19 111.046 245.102 111.684C246.013 112.322 246.469 113.318 246.469 114.672C246.469 117.51 246.312 122.25 246 128.891L247.211 128.617C248.031 127.146 248.943 125.212 249.945 122.816C250.961 120.421 251.625 118.565 251.938 117.25L249.516 116.84C249.346 116.137 249.223 115.544 249.145 115.062C249.079 114.581 249.047 114.053 249.047 113.48V113.031C249.307 112.706 249.77 112.361 250.434 111.996C251.111 111.618 251.885 111.306 252.758 111.059C253.63 110.811 254.49 110.688 255.336 110.688C256.26 110.688 257.1 110.844 257.855 111.156C258.611 111.469 259.21 111.951 259.652 112.602C260.108 113.253 260.336 114.053 260.336 115.004C260.336 116.645 259.639 118.617 258.246 120.922C256.866 123.227 255.206 125.538 253.266 127.855C253.904 129.184 254.587 130.434 255.316 131.605C256.046 132.777 256.69 133.663 257.25 134.262C257.536 134.118 257.803 133.93 258.051 133.695C258.311 133.461 258.643 133.122 259.047 132.68L259.477 132.23L261.879 134.047V134.477C261.879 136.547 261.358 138.214 260.316 139.477C259.288 140.74 257.725 141.371 255.629 141.371C254.848 141.371 254.105 141.26 253.402 141.039C252.426 140.74 251.579 140.147 250.863 139.262C250.16 138.376 249.6 137.354 249.184 136.195C248.78 135.023 248.5 133.819 248.344 132.582C247.693 132.738 246.84 132.849 245.785 132.914C245.668 135.141 245.518 137.686 245.336 140.551C244.281 141.124 243.109 141.41 241.82 141.41C240.701 141.41 239.646 141.208 238.656 140.805L238.676 138.988ZM262.973 129.457C262.973 127.1 263.35 125.056 264.105 123.324C264.861 121.592 266.02 120.251 267.582 119.301C269.145 118.337 271.104 117.855 273.461 117.855C276.065 117.855 278.109 118.344 279.594 119.32C281.078 120.284 282.113 121.625 282.699 123.344C283.298 125.062 283.598 127.165 283.598 129.652C283.598 131.905 283.201 133.917 282.406 135.688C281.625 137.445 280.44 138.839 278.852 139.867C277.276 140.883 275.342 141.391 273.051 141.391C269.509 141.391 266.944 140.303 265.355 138.129C263.767 135.941 262.973 133.051 262.973 129.457ZM273.852 135.668C274.516 135.668 274.919 135.616 275.062 135.512C275.362 134.991 275.59 134.255 275.746 133.305C275.902 132.354 275.98 131.326 275.98 130.219C275.98 129.203 275.915 128.253 275.785 127.367C275.655 126.469 275.473 125.766 275.238 125.258C275.095 125.089 274.809 124.965 274.379 124.887C273.949 124.796 273.48 124.75 272.973 124.75C272.309 124.75 271.853 124.822 271.605 124.965C270.954 126.085 270.629 127.641 270.629 129.633C270.629 130.57 270.701 131.527 270.844 132.504C270.987 133.48 271.169 134.366 271.391 135.16C271.547 135.329 271.866 135.46 272.348 135.551C272.829 135.629 273.331 135.668 273.852 135.668ZM288.207 135.766C288.207 135.206 288.22 133.832 288.246 131.645C288.285 127.348 288.305 124.997 288.305 124.594L286.508 124.301C286.26 123.559 286.085 122.862 285.98 122.211C285.876 121.56 285.824 120.902 285.824 120.238C285.824 119.965 285.831 119.757 285.844 119.613C286.065 119.418 286.41 119.184 286.879 118.91C287.348 118.637 287.901 118.396 288.539 118.188C289.177 117.966 289.828 117.855 290.492 117.855C292.042 117.855 293.161 118.201 293.852 118.891C294.555 119.581 294.906 120.59 294.906 121.918C294.906 122.725 294.802 123.76 294.594 125.023C294.398 126.273 294.197 127.165 293.988 127.699L294.691 127.816L295.863 123.402C296.384 121.41 297.035 119.991 297.816 119.145C298.598 118.285 299.477 117.855 300.453 117.855C301.091 117.855 301.723 117.953 302.348 118.148C302.986 118.344 303.474 118.585 303.812 118.871C304.177 119.678 304.359 120.753 304.359 122.094C304.359 123.031 304.268 123.962 304.086 124.887C303.904 125.798 303.669 126.534 303.383 127.094L299.281 126.547C298.448 127.432 297.562 128.663 296.625 130.238C295.688 131.801 294.939 133.24 294.379 134.555L294.359 135.57L298.148 134.672C298.786 135.648 299.158 136.807 299.262 138.148C299.262 138.227 298.969 138.546 298.383 139.105C297.797 139.665 297.022 140.186 296.059 140.668C295.108 141.137 294.014 141.371 292.777 141.371C291.501 141.371 290.434 141.033 289.574 140.355C288.728 139.665 288.279 138.507 288.227 136.879C288.214 136.684 288.207 136.312 288.207 135.766ZM305.785 129.652C305.785 127.4 306.163 125.388 306.918 123.617C307.673 121.846 308.839 120.447 310.414 119.418C312.003 118.376 313.982 117.855 316.352 117.855C317.589 117.855 318.826 118.005 320.062 118.305C321.299 118.591 322.348 119.073 323.207 119.75C324.001 120.388 324.574 121.234 324.926 122.289C325.29 123.331 325.473 124.49 325.473 125.766C325.473 126.612 325.401 127.478 325.258 128.363C325.102 128.624 324.796 128.969 324.34 129.398C323.884 129.815 323.35 130.225 322.738 130.629C322.126 131.033 321.534 131.345 320.961 131.566C320.414 131.605 319.848 131.625 319.262 131.625C318.233 131.625 317.191 131.579 316.137 131.488C315.082 131.397 314.158 131.293 313.363 131.176C313.467 132.283 313.806 133.246 314.379 134.066C314.952 134.887 315.863 135.297 317.113 135.297C317.23 135.297 317.419 135.284 317.68 135.258C318.474 135.18 319.398 134.971 320.453 134.633C321.521 134.281 322.582 133.878 323.637 133.422C324.132 133.917 324.496 134.411 324.73 134.906C324.965 135.401 325.128 136.111 325.219 137.035C324.815 137.504 324.158 138.077 323.246 138.754C322.348 139.431 321.247 140.043 319.945 140.59C318.643 141.124 317.283 141.391 315.863 141.391C313.728 141.391 311.898 140.876 310.375 139.848C308.865 138.806 307.719 137.4 306.938 135.629C306.169 133.845 305.785 131.853 305.785 129.652ZM318.363 125.16C318.181 124.965 317.875 124.815 317.445 124.711C317.016 124.594 316.566 124.535 316.098 124.535C315.72 124.535 315.336 124.568 314.945 124.633C314.568 124.698 314.34 124.77 314.262 124.848C313.819 125.72 313.539 126.71 313.422 127.816L318.637 127.309L318.363 125.16ZM329.926 134.105C331.072 134.561 331.99 134.913 332.68 135.16C333.37 135.408 334.125 135.622 334.945 135.805C335.779 135.987 336.605 136.078 337.426 136.078C337.79 136.078 338.051 136.046 338.207 135.98C338.246 135.928 338.279 135.85 338.305 135.746C338.344 135.629 338.363 135.512 338.363 135.395C338.363 135.134 338.214 134.919 337.914 134.75C337.445 134.49 336.612 134.079 335.414 133.52C333.773 132.738 332.471 132.042 331.508 131.43C330.557 130.818 329.75 130.004 329.086 128.988C328.435 127.973 328.109 126.697 328.109 125.16C328.109 122.96 328.767 121.195 330.082 119.867C331.397 118.526 333.48 117.855 336.332 117.855C339.73 117.855 342.374 118.298 344.262 119.184C344.353 119.561 344.398 120.036 344.398 120.609C344.398 121.703 344.229 122.823 343.891 123.969C343.552 125.102 343.109 125.941 342.562 126.488C341.82 126.241 340.772 125.844 339.418 125.297C338.428 124.906 337.641 124.607 337.055 124.398C336.482 124.177 335.954 124.021 335.473 123.93C335.212 123.995 335.004 124.151 334.848 124.398C334.691 124.633 334.613 124.913 334.613 125.238C334.613 125.525 334.698 125.766 334.867 125.961C335.036 126.156 335.225 126.312 335.434 126.43C335.655 126.534 335.967 126.677 336.371 126.859C336.579 126.951 336.775 127.035 336.957 127.113C337.139 127.178 337.309 127.243 337.465 127.309C338.48 127.738 339.281 128.09 339.867 128.363C340.453 128.637 341.02 128.962 341.566 129.34C342.569 130.03 343.357 130.818 343.93 131.703C344.503 132.589 344.789 133.559 344.789 134.613C344.789 136.072 344.372 137.335 343.539 138.402C342.719 139.457 341.664 140.225 340.375 140.707C339.698 140.954 338.956 141.13 338.148 141.234C337.354 141.352 336.423 141.41 335.355 141.41C334.092 141.41 332.79 141.169 331.449 140.688C330.121 140.193 329.105 139.372 328.402 138.227C328.415 137.432 328.52 136.742 328.715 136.156C328.923 135.557 329.327 134.874 329.926 134.105ZM348.148 128.305C348.148 122.263 348.266 118.109 348.5 115.844L346.293 115.453C345.98 114.255 345.824 112.966 345.824 111.586C346.02 111.339 346.384 111.033 346.918 110.668C347.452 110.303 348.07 109.984 348.773 109.711C349.49 109.438 350.199 109.301 350.902 109.301C352.504 109.301 353.695 109.711 354.477 110.531C355.258 111.352 355.648 112.608 355.648 114.301C355.648 115.043 355.583 116.241 355.453 117.895C355.323 119.535 355.134 121.299 354.887 123.188C354.639 125.062 354.353 126.736 354.027 128.207C354.027 128.285 354.073 128.357 354.164 128.422C354.255 128.487 354.353 128.52 354.457 128.52C354.574 128.52 354.652 128.474 354.691 128.383C355.212 126.312 355.733 124.581 356.254 123.188C356.775 121.794 357.562 120.557 358.617 119.477C359.672 118.396 361.039 117.855 362.719 117.855C364.802 117.855 366.299 118.493 367.211 119.77C368.122 121.033 368.578 122.628 368.578 124.555C368.578 126.273 368.376 127.934 367.973 129.535C367.569 131.124 367.068 132.784 366.469 134.516C366.495 134.451 366.404 134.704 366.195 135.277L366.234 135.316L369.125 134.105C370.141 134.978 370.733 136.137 370.902 137.582C370.902 137.673 370.609 138.051 370.023 138.715C369.438 139.366 368.663 139.978 367.699 140.551C366.749 141.111 365.655 141.391 364.418 141.391C363.181 141.391 362.172 141.059 361.391 140.395C360.609 139.73 360.219 138.598 360.219 136.996C360.219 135.72 360.271 134.014 360.375 131.879C360.479 129.743 360.583 128.025 360.688 126.723C360.349 126.358 359.932 126.163 359.438 126.137C358.982 126.723 358.311 127.895 357.426 129.652C356.54 131.41 355.915 132.725 355.551 133.598C355.525 133.78 355.512 133.956 355.512 134.125C355.512 134.776 355.609 135.655 355.805 136.762C356 137.855 356.241 138.878 356.527 139.828C356.293 140.271 355.811 140.642 355.082 140.941C354.353 141.241 353.454 141.391 352.387 141.391C351.423 141.391 350.648 141.312 350.062 141.156C349.49 141 349.086 140.837 348.852 140.668C348.617 140.486 348.5 140.375 348.5 140.336C348.487 140.219 348.454 139.913 348.402 139.418C348.35 138.91 348.298 138.207 348.246 137.309C348.194 136.397 348.168 135.362 348.168 134.203L348.148 128.305ZM372.348 129.457C372.348 127.1 372.725 125.056 373.48 123.324C374.236 121.592 375.395 120.251 376.957 119.301C378.52 118.337 380.479 117.855 382.836 117.855C385.44 117.855 387.484 118.344 388.969 119.32C390.453 120.284 391.488 121.625 392.074 123.344C392.673 125.062 392.973 127.165 392.973 129.652C392.973 131.905 392.576 133.917 391.781 135.688C391 137.445 389.815 138.839 388.227 139.867C386.651 140.883 384.717 141.391 382.426 141.391C378.884 141.391 376.319 140.303 374.73 138.129C373.142 135.941 372.348 133.051 372.348 129.457ZM383.227 135.668C383.891 135.668 384.294 135.616 384.438 135.512C384.737 134.991 384.965 134.255 385.121 133.305C385.277 132.354 385.355 131.326 385.355 130.219C385.355 129.203 385.29 128.253 385.16 127.367C385.03 126.469 384.848 125.766 384.613 125.258C384.47 125.089 384.184 124.965 383.754 124.887C383.324 124.796 382.855 124.75 382.348 124.75C381.684 124.75 381.228 124.822 380.98 124.965C380.329 126.085 380.004 127.641 380.004 129.633C380.004 130.57 380.076 131.527 380.219 132.504C380.362 133.48 380.544 134.366 380.766 135.16C380.922 135.329 381.241 135.46 381.723 135.551C382.204 135.629 382.706 135.668 383.227 135.668ZM396.723 128.383C396.723 122.289 396.84 118.109 397.074 115.844L394.867 115.453C394.555 114.255 394.398 112.966 394.398 111.586C394.594 111.339 394.958 111.033 395.492 110.668C396.026 110.303 396.645 109.984 397.348 109.711C398.064 109.438 398.773 109.301 399.477 109.301C401.221 109.301 402.576 109.678 403.539 110.434C404.516 111.189 405.004 112.478 405.004 114.301C405.004 115.212 404.939 116.612 404.809 118.5C404.678 120.375 404.438 122.654 404.086 125.336C403.734 128.018 403.266 130.818 402.68 133.734L403.012 133.93C404.04 132.51 405.03 130.948 405.98 129.242C406.931 127.523 407.686 125.928 408.246 124.457L406.566 124.047C406.41 123.161 406.332 122.113 406.332 120.902V120.199C406.827 119.574 407.504 119.027 408.363 118.559C409.236 118.09 410.316 117.855 411.605 117.855C412.53 117.855 413.331 118.031 414.008 118.383C414.685 118.721 415.206 119.197 415.57 119.809C415.935 120.421 416.117 121.124 416.117 121.918C416.117 122.517 416.026 123.083 415.844 123.617C415.661 124.138 415.388 124.691 415.023 125.277C414.086 126.762 412.452 128.871 410.121 131.605C410.902 132.699 411.664 133.65 412.406 134.457C412.693 134.314 412.96 134.125 413.207 133.891C413.467 133.656 413.799 133.318 414.203 132.875L414.633 132.426L417.035 134.242C416.944 136.56 416.443 138.331 415.531 139.555C414.633 140.766 413.441 141.371 411.957 141.371C410.329 141.371 409.105 140.876 408.285 139.887C407.465 138.897 406.866 137.497 406.488 135.688C405.056 137.237 403.793 138.539 402.699 139.594C401.618 140.635 400.909 141.234 400.57 141.391C399.854 141.391 399.171 141.306 398.52 141.137C397.868 140.967 397.387 140.701 397.074 140.336C396.931 138.487 396.833 136.658 396.781 134.848C396.742 133.025 396.723 130.87 396.723 128.383ZM428.734 129.184C428.734 124.366 428.858 119.919 429.105 115.844L426.898 115.453C426.586 114.255 426.43 112.966 426.43 111.586C426.625 111.339 426.99 111.033 427.523 110.668C428.057 110.303 428.676 109.984 429.379 109.711C430.095 109.438 430.805 109.301 431.508 109.301C433.109 109.301 434.301 109.711 435.082 110.531C435.863 111.352 436.254 112.608 436.254 114.301C436.254 115.303 436.163 116.853 435.98 118.949C435.811 121.033 435.564 123.044 435.238 124.984L434.691 128.305L435.316 128.52L435.98 125.941C436.605 123.533 437.549 121.586 438.812 120.102C440.089 118.604 441.684 117.855 443.598 117.855C445.03 117.855 446.195 118.168 447.094 118.793C448.005 119.405 448.663 120.219 449.066 121.234C449.47 122.237 449.672 123.344 449.672 124.555C449.672 126.195 449.516 128.038 449.203 130.082C448.891 132.113 448.474 134.014 447.953 135.785C447.445 137.517 446.599 138.884 445.414 139.887C444.242 140.889 442.777 141.391 441.02 141.391C440.329 141.391 439.444 141.26 438.363 141C437.283 140.74 436.085 140.316 434.77 139.73C434.574 140.056 434.353 140.375 434.105 140.688C433.871 141 433.663 141.234 433.48 141.391C432.517 141.391 431.71 141.312 431.059 141.156C430.408 141 429.919 140.837 429.594 140.668C429.268 140.486 429.105 140.375 429.105 140.336C428.858 137.654 428.734 133.936 428.734 129.184ZM440.648 136.234C440.805 136.234 440.902 136.221 440.941 136.195C441.41 134.438 441.645 131.775 441.645 128.207C441.645 127.595 441.612 127.1 441.547 126.723C441.247 126.345 440.818 126.156 440.258 126.156C440.076 126.312 439.451 127.341 438.383 129.242C437.315 131.13 436.527 132.582 436.02 133.598V134.535C436.736 135.03 437.562 135.44 438.5 135.766C439.438 136.078 440.154 136.234 440.648 136.234ZM451.488 115.453C451.293 114.659 451.163 114.001 451.098 113.48C451.033 112.947 451.007 112.335 451.02 111.645C451.293 111.293 451.716 110.941 452.289 110.59C452.875 110.225 453.552 109.919 454.32 109.672C455.102 109.424 455.909 109.301 456.742 109.301C458.37 109.301 459.62 109.711 460.492 110.531C461.365 111.352 461.801 112.562 461.801 114.164C461.801 115.31 461.703 117.152 461.508 119.691C461.312 122.23 461.033 124.932 460.668 127.797C460.303 130.648 459.887 133.142 459.418 135.277L459.457 135.316L462.348 134.105C463.363 134.978 463.956 136.137 464.125 137.582C464.125 137.673 463.832 138.051 463.246 138.715C462.66 139.366 461.885 139.978 460.922 140.551C459.971 141.111 458.878 141.391 457.641 141.391C456.352 141.391 455.303 141.033 454.496 140.316C453.702 139.6 453.324 138.376 453.363 136.645L453.402 133.129C453.415 129.796 453.448 126.794 453.5 124.125C453.565 121.456 453.695 118.702 453.891 115.863L451.488 115.453ZM465.707 129.457C465.707 127.1 466.085 125.056 466.84 123.324C467.595 121.592 468.754 120.251 470.316 119.301C471.879 118.337 473.839 117.855 476.195 117.855C478.799 117.855 480.844 118.344 482.328 119.32C483.812 120.284 484.848 121.625 485.434 123.344C486.033 125.062 486.332 127.165 486.332 129.652C486.332 131.905 485.935 133.917 485.141 135.688C484.359 137.445 483.174 138.839 481.586 139.867C480.01 140.883 478.077 141.391 475.785 141.391C472.243 141.391 469.678 140.303 468.09 138.129C466.501 135.941 465.707 133.051 465.707 129.457ZM476.586 135.668C477.25 135.668 477.654 135.616 477.797 135.512C478.096 134.991 478.324 134.255 478.48 133.305C478.637 132.354 478.715 131.326 478.715 130.219C478.715 129.203 478.65 128.253 478.52 127.367C478.389 126.469 478.207 125.766 477.973 125.258C477.829 125.089 477.543 124.965 477.113 124.887C476.684 124.796 476.215 124.75 475.707 124.75C475.043 124.75 474.587 124.822 474.34 124.965C473.689 126.085 473.363 127.641 473.363 129.633C473.363 130.57 473.435 131.527 473.578 132.504C473.721 133.48 473.904 134.366 474.125 135.16C474.281 135.329 474.6 135.46 475.082 135.551C475.564 135.629 476.065 135.668 476.586 135.668ZM500.395 144.105C501.267 144.105 502.022 144.008 502.66 143.812C502.855 143.617 502.992 143.389 503.07 143.129C503.148 142.882 503.188 142.647 503.188 142.426C503.188 142.191 503.168 142.016 503.129 141.898C503.09 141.794 503.025 141.697 502.934 141.605C502.387 141.514 501.742 141.449 501 141.41C500.271 141.384 499.835 141.365 499.691 141.352C497.882 141.273 496.41 141.143 495.277 140.961C494.145 140.766 493.174 140.349 492.367 139.711C491.56 139.06 491.156 138.083 491.156 136.781C491.156 136.078 491.384 135.421 491.84 134.809C492.296 134.184 492.888 133.637 493.617 133.168C492.133 132.556 490.941 131.638 490.043 130.414C489.158 129.177 488.715 127.582 488.715 125.629C488.715 123.689 489.21 122.133 490.199 120.961C491.202 119.776 492.432 118.943 493.891 118.461C495.349 117.979 496.833 117.738 498.344 117.738C499.294 117.738 500.225 117.829 501.137 118.012C502.048 118.194 502.895 118.454 503.676 118.793L502.836 113.832C503.63 113.35 504.62 113.109 505.805 113.109C506.664 113.109 507.465 113.253 508.207 113.539C508.949 113.826 509.516 114.236 509.906 114.77C509.932 114.9 509.945 115.108 509.945 115.395C509.945 116.462 509.75 117.654 509.359 118.969C508.982 120.271 508.324 121.319 507.387 122.113C507.855 123.051 508.09 124.06 508.09 125.141C508.09 126.729 507.784 128.194 507.172 129.535C506.573 130.876 505.57 131.97 504.164 132.816C502.758 133.65 500.928 134.066 498.676 134.066C498.025 134.066 497.348 134.027 496.645 133.949C496.605 134.6 496.762 135.251 497.113 135.902C498.871 135.564 500.29 135.388 501.371 135.375L502.699 135.355C504.496 135.355 505.857 135.466 506.781 135.688C507.797 135.935 508.552 136.495 509.047 137.367C509.555 138.24 509.809 139.301 509.809 140.551C509.809 142.504 509.21 144.145 508.012 145.473C506.827 146.814 505.284 147.81 503.383 148.461C501.495 149.112 499.49 149.438 497.367 149.438C495.401 149.438 493.65 149.105 492.113 148.441C490.577 147.777 489.607 146.56 489.203 144.789C489.633 143.292 490.453 142.159 491.664 141.391C493.292 142.367 494.848 143.064 496.332 143.48C497.829 143.897 499.184 144.105 500.395 144.105ZM499.203 129.242C500.141 129.242 500.688 129.184 500.844 129.066C501.195 128.363 501.371 127.641 501.371 126.898C501.371 126.13 501.195 125.408 500.844 124.73C500.674 124.587 500.297 124.477 499.711 124.398C499.138 124.32 498.513 124.281 497.836 124.281C496.99 124.281 496.423 124.333 496.137 124.438C495.733 125.154 495.531 125.876 495.531 126.605C495.531 127.348 495.72 128.051 496.098 128.715C496.384 128.897 496.814 129.034 497.387 129.125C497.973 129.203 498.578 129.242 499.203 129.242Z" fill="white"/>
</g>
<defs>
<filter id="filter0_d_1_7" x="231.512" y="109.301" width="282.434" height="48.1367" filterUnits="userSpaceOnUse" color-interpolation-filters="sRGB">
<feFlood flood-opacity="0" result="BackgroundImageFix"/>
<feColorMatrix in="SourceAlpha" type="matrix" values="0 0 0 0 0 0 0 0 0 0 0 0 0 0 0 0 0 0 127 0" result="hardAlpha"/>
<feOffset dy="4"/>
<feGaussianBlur stdDeviation="2"/>
<feComposite in2="hardAlpha" operator="out"/>
<feColorMatrix type="matrix" values="0 0 0 0 0 0 0 0 0 0 0 0 0 0 0 0 0 0 0.25 0"/>
<feBlend mode="normal" in2="BackgroundImageFix" result="effect1_dropShadow_1_7"/>
<feBlend mode="normal" in="SourceGraphic" in2="effect1_dropShadow_1_7" result="shape"/>
</filter>
</defs>
</svg>
